<svg xmlns="http://www.w3.org/2000/svg" xmlns:xlink="http://www.w3.org/1999/xlink" viewBox="0 0 234.29 147.72"><defs><style>.a{fill:#231f20;}.b{fill:#fff;}.c{fill:url(#a);}.d{fill:url(#b);}</style><linearGradient id="a" x1="290.3" y1="35.22" x2="265.11" y2="152.76" gradientUnits="userSpaceOnUse"><stop offset="0" stop-color="#bf2169"/><stop offset="0.19" stop-color="#b62165"/><stop offset="0.49" stop-color="#9e215b"/><stop offset="0.88" stop-color="#76204b"/><stop offset="1" stop-color="#682045"/></linearGradient><linearGradient id="b" x1="276.68" y1="32.86" x2="182.58" y2="131.93" gradientUnits="userSpaceOnUse"><stop offset="0" stop-color="#fbd5e0"/><stop offset="0.35" stop-color="#bf2169"/><stop offset="1" stop-color="#682045"/></linearGradient></defs><title>logo-coloured-2019</title><path class="a" d="M64.36,171a3.13,3.13,0,0,0-2.53-1.23,4,4,0,0,0-3.85,4.2,3.93,3.93,0,0,0,3.85,4.2,3.53,3.53,0,0,0,2.92-1.42l.9.76a4.49,4.49,0,0,1-3.82,1.77,5.31,5.31,0,0,1,0-10.62,4.37,4.37,0,0,1,3.57,1.59Z" transform="translate(-56.54 -34.7)"/><path class="a" d="M92.45,175.14c0,2.19-1,4.11-3.81,4.11s-3.81-1.92-3.81-4.11v-6.25H86V175c0,1.63.61,3.17,2.62,3.17s2.61-1.54,2.61-3.17v-6.08h1.2Z" transform="translate(-56.54 -34.7)"/><path class="a" d="M67.58,168.89a.81.81,0,0,1,.81.81.82.82,0,1,1-1.63,0,.82.82,0,0,1,.82-.81M67,172.31h1.11V179H67Z" transform="translate(-56.54 -34.7)"/><path class="a" d="M73.7,173.25h-2v3.35c0,.85,0,1.54,1,1.54a2.24,2.24,0,0,0,1-.23l0,1a3.36,3.36,0,0,1-1.29.24c-1.59,0-1.84-.85-1.84-2.24v-3.67H69.16v-.94h1.46v-1.89h1.11v1.89h2Z" transform="translate(-56.54 -34.7)"/><path class="a" d="M78.1,180.52c-.43,1.13-.88,1.9-2.22,1.9a2.33,2.33,0,0,1-1-.18l.14-1a2.32,2.32,0,0,0,.79.11c.73,0,1-.44,1.24-1.1l.46-1.25-2.77-6.73H76l2.06,5.24h0l2-5.24h1.21Z" transform="translate(-56.54 -34.7)"/><path class="a" d="M93.91,173.9c0-.62,0-1.14,0-1.59h1c0,.36,0,.73,0,1.1h0a2.44,2.44,0,0,1,2.23-1.27c1.75,0,2.54,1.11,2.54,2.73V179H98.62v-4c0-1.11-.48-1.81-1.52-1.81-1.44,0-2.07,1-2.07,2.57V179H93.91Z" transform="translate(-56.54 -34.7)"/><path class="a" d="M101.85,168.89a.81.81,0,0,1,.81.81.81.81,0,1,1-1.62,0,.81.81,0,0,1,.81-.81m-.56,3.42h1.12V179h-1.12Z" transform="translate(-56.54 -34.7)"/><polygon class="a" points="51.19 144.3 49.97 144.3 47.24 137.62 48.54 137.62 50.62 142.85 50.65 142.85 52.63 137.62 53.83 137.62 51.19 144.3"/><path class="a" d="M123.81,177.24a2.06,2.06,0,0,0,1.71.9c.7,0,1.47-.3,1.47-1s-.72-.9-1.43-1.06c-1.27-.28-2.35-.55-2.35-1.94s1.25-2,2.49-2a2.44,2.44,0,0,1,2.27,1.21l-.92.62a1.61,1.61,0,0,0-1.42-.8c-.61,0-1.31.3-1.31.93s.8.79,1.68,1c1.19.23,2.18.65,2.18,2,0,1.51-1.34,2.09-2.66,2.09a2.83,2.83,0,0,1-2.6-1.24Z" transform="translate(-56.54 -34.7)"/><path class="a" d="M117,177.78a3.44,3.44,0,0,1-3,1.38,3.31,3.31,0,0,1-3.39-3.51,3.35,3.35,0,0,1,3.43-3.51c1.88,0,3.17,1.29,3.17,3.5V176h-5.4a2.24,2.24,0,0,0,2.19,2.14,2.49,2.49,0,0,0,2.13-1Zm-1-2.73a1.86,1.86,0,0,0-2-1.88,2.08,2.08,0,0,0-2.19,1.88Z" transform="translate(-56.54 -34.7)"/><path class="a" d="M118.67,173.9c0-.62-.06-1.14-.06-1.59h1.06c0,.36,0,.73,0,1.1h0a2.44,2.44,0,0,1,2.23-1.27,1.31,1.31,0,0,1,.46.08l-.07,1.12a2,2,0,0,0-.6-.09c-1.36,0-2,1-2,2.49V179h-1.11Z" transform="translate(-56.54 -34.7)"/><path class="a" d="M130,168.89a.82.82,0,0,1,.82.81.8.8,0,0,1-.82.82.79.79,0,0,1-.81-.82.81.81,0,0,1,.81-.81m-.55,3.42h1.11V179h-1.11Z" transform="translate(-56.54 -34.7)"/><path class="a" d="M136.45,173.25h-2v3.35c0,.85,0,1.54,1,1.54a2.27,2.27,0,0,0,1-.23l0,1a3.41,3.41,0,0,1-1.3.24c-1.58,0-1.84-.85-1.84-2.24v-3.67h-1.45v-.94h1.45v-1.89h1.11v1.89h2Z" transform="translate(-56.54 -34.7)"/><path class="a" d="M140.63,180.52c-.44,1.13-.88,1.9-2.23,1.9a2.26,2.26,0,0,1-1-.18l.14-1a2.3,2.3,0,0,0,.78.11c.73,0,1-.44,1.24-1.1L140,179l-2.77-6.73h1.3l2.07,5.24h0l2-5.24h1.22Z" transform="translate(-56.54 -34.7)"/><path class="a" d="M150.47,172.14a3.51,3.51,0,1,1-3.56,3.51,3.4,3.4,0,0,1,3.56-3.51m0,6a2.49,2.49,0,1,0-2.37-2.49,2.34,2.34,0,0,0,2.37,2.49" transform="translate(-56.54 -34.7)"/><path class="a" d="M156,173.25H154.5v-.94H156v-1.49c0-1.63.57-2.79,2.37-2.79a1.93,1.93,0,0,1,.85.18l-.15,1a2.54,2.54,0,0,0-.76-.14c-1.16,0-1.2.84-1.2,2v1.25h1.63v.94h-1.63V179H156Z" transform="translate(-56.54 -34.7)"/><polygon class="a" points="106.73 134.19 107.93 134.19 107.93 138.47 113.32 138.47 113.32 134.19 114.52 134.19 114.52 144.3 113.32 144.3 113.32 139.59 107.93 139.59 107.93 144.3 106.73 144.3 106.73 134.19"/><path class="a" d="M176,172.14a3.51,3.51,0,1,1-3.57,3.51,3.4,3.4,0,0,1,3.57-3.51m0,6a2.49,2.49,0,1,0-2.37-2.49,2.34,2.34,0,0,0,2.37,2.49" transform="translate(-56.54 -34.7)"/><path class="a" d="M181,173.9c0-.62,0-1.14,0-1.59h1c0,.36,0,.73,0,1.1h0a2.44,2.44,0,0,1,2.23-1.27c1.75,0,2.53,1.11,2.53,2.73V179h-1.11v-4c0-1.11-.48-1.81-1.52-1.81-1.45,0-2.07,1-2.07,2.57V179H181Z" transform="translate(-56.54 -34.7)"/><path class="a" d="M195.16,178.69c0,2.42-1.3,3.73-3.64,3.73a4.32,4.32,0,0,1-3.28-1.27l.8-.92a3.16,3.16,0,0,0,2.48,1.16c2,0,2.53-1.28,2.53-2.7v-.85h0a2.76,2.76,0,0,1-2.36,1.24,3.36,3.36,0,0,1-3.55-3.43,3.3,3.3,0,0,1,3.55-3.51,2.63,2.63,0,0,1,2.36,1.32h0v-1.15h1.11Zm-3.5-.64a2.44,2.44,0,0,0,0-4.88,2.44,2.44,0,0,0,0,4.88" transform="translate(-56.54 -34.7)"/><path class="a" d="M211.56,172.14a3.51,3.51,0,1,1-3.57,3.51,3.4,3.4,0,0,1,3.57-3.51m0,6a2.49,2.49,0,1,0-2.37-2.49,2.34,2.34,0,0,0,2.37,2.49" transform="translate(-56.54 -34.7)"/><path class="a" d="M216.52,173.9c0-.62-.06-1.14-.06-1.59h1.06c0,.36,0,.73,0,1.1h0a2.43,2.43,0,0,1,2.22-1.27c1.76,0,2.54,1.11,2.54,2.73V179h-1.11v-4c0-1.11-.48-1.81-1.53-1.81-1.44,0-2.07,1-2.07,2.57V179h-1.11Z" transform="translate(-56.54 -34.7)"/><path class="a" d="M230.69,178.69c0,2.42-1.29,3.73-3.64,3.73a4.35,4.35,0,0,1-3.28-1.27l.8-.92a3.19,3.19,0,0,0,2.48,1.16c2,0,2.53-1.28,2.53-2.7v-.85h0a2.74,2.74,0,0,1-2.35,1.24,3.36,3.36,0,0,1-3.55-3.43,3.3,3.3,0,0,1,3.55-3.51,2.61,2.61,0,0,1,2.35,1.32h0v-1.15h1.11Zm-3.49-.64a2.44,2.44,0,0,0,0-4.88,2.44,2.44,0,0,0,0,4.88" transform="translate(-56.54 -34.7)"/><polygon class="a" points="143.73 134.19 144.93 134.19 144.93 138.56 145.1 138.56 149.7 134.19 151.42 134.19 146.43 138.8 151.67 144.3 149.91 144.3 145.1 139.16 144.93 139.16 144.93 144.3 143.73 144.3 143.73 134.19"/><path class="a" d="M66.39,150.75h6.06v-.95H65.27V148a49.18,49.18,0,0,0,5.5-.78l.18,0-.54-1-.09,0a61.36,61.36,0,0,1-11.82,1.17h-.18l.29,1h.1c1.94-.05,3.8-.15,5.54-.31v1.67H57.07v.95h6a13.08,13.08,0,0,1-2.55,2.05,19.06,19.06,0,0,1-3.88,1.95l-.14.05.45.93.12,0a22,22,0,0,0,4.29-2.27,16,16,0,0,0,2.85-2.53v3.88H59.94v7.31h9.71v-7.31H65.27v-3.88a20.14,20.14,0,0,0,6.86,4.65l.08,0,.83-.89-.17-.08A20.54,20.54,0,0,1,66.39,150.75Zm2.24,8.06v2.33H61v-2.33ZM61,157.86v-2.14h7.67v2.14Z" transform="translate(-56.54 -34.7)"/><path class="a" d="M152.39,157.44a12.78,12.78,0,0,1-2.34-5.17h6.31v-1.08H148.7c.19-1.32.35-2.86.47-4.7v-.14h-1.06v.12c-.12,1.71-.28,3.33-.49,4.72h-6.44v1.08h6.25a14,14,0,0,1-1.57,4.62,13.37,13.37,0,0,1-5.27,4.66l-.15.09.77.83.09-.05a13.51,13.51,0,0,0,5.59-5,16.21,16.21,0,0,0,1.63-5.1H149a14.46,14.46,0,0,0,2.49,5.72,15.79,15.79,0,0,0,4.56,4.42l.11.07.7-1-.12-.07A14.59,14.59,0,0,1,152.39,157.44Z" transform="translate(-56.54 -34.7)"/><path class="a" d="M129.5,148.15l-.08-.08a10.7,10.7,0,0,0-2.08-1.78l-.1-.06-.65.76.12.09a9.92,9.92,0,0,1,1.93,1.74h-8.71v1h7.66v3h-5.75v8.13H123v-7.1h4.59v8.65h1.16v-8.65h4.8v5.25c0,.62-.25.62-.34.62a6.85,6.85,0,0,1-2.42-.53l-.2-.08.09,1.12.08,0a7.6,7.6,0,0,0,2.45.48,1.34,1.34,0,0,0,1.5-1.5V152.8h-6v-3h7.65v-1h-7.47Z" transform="translate(-56.54 -34.7)"/><path class="a" d="M81.18,150.15l.11.1.63-.84-.08-.08a15.77,15.77,0,0,0-2.76-2.14l-.1-.06-.58.77.12.07A15.82,15.82,0,0,1,81.18,150.15Z" transform="translate(-56.54 -34.7)"/><path class="a" d="M90.12,153.13H93.8v-.95H89.89V149.9h3V149h-3v-2.61h-1V149H85.93v-2.61h-1V149H82.37v.94h2.54v2.28H81.35v.95H84.8a9.72,9.72,0,0,1-1,1.68A11.65,11.65,0,0,1,81.46,157l-.13.09.76.74.09-.07a12.3,12.3,0,0,0,2.24-2.15v4.78a1.42,1.42,0,0,0,.53,1.35c.43.28,1.57.36,5.09.36,1.63,0,2.26-.19,2.51-.73a8.23,8.23,0,0,0,.28-2.35v-.08l-1.09-.53v.39a9.28,9.28,0,0,1-.16,1.85c-.15.37-.6.43-1.54.43-2.6,0-4,0-4.34-.22s-.26-.26-.26-.52v-1.8H90.5v-3.44a16.24,16.24,0,0,0,2.74,2.19l.1.06.79-.89-.14-.08A12.61,12.61,0,0,1,90.12,153.13Zm-4.68,4.45v-1.85h4v1.85Zm3.43-7.68v2.28H85.93V149.9ZM85,154.77a10.25,10.25,0,0,0,.91-1.64h3a10.17,10.17,0,0,0,1.27,1.64Z" transform="translate(-56.54 -34.7)"/><path class="a" d="M81.5,155.68l-.84-.58,0,.18a26.48,26.48,0,0,1-2.88,6.45l-.07.1.92.65.08-.13a30.83,30.83,0,0,0,2.81-6.58Z" transform="translate(-56.54 -34.7)"/><path class="a" d="M80.42,154.17l.11.12.64-.82-.08-.09A14.8,14.8,0,0,0,78.33,151l-.1-.07-.58.75.11.08A17,17,0,0,1,80.42,154.17Z" transform="translate(-56.54 -34.7)"/><path class="a" d="M163.07,154.49H176v1.85h1v-2.79h-1.16l.16-6.38H172v1h2.89l0,1.17H172v1h2.84l0,1.1h-3.1v.95h3.08l0,1.24h-3.63l.65-.71-.1-.09c-.41-.38-.79-.72-1.19-1.05a8.1,8.1,0,0,0,1-1.18l.06-.08-.37-.42.6-.67-.16-.15c-.33-.29-.66-.59-1-.88a11.1,11.1,0,0,0,1.15-1.32l.07-.09-.61-.68-.1.13a8,8,0,0,1-1.23,1.39c-.49-.36-1-.73-1.65-1.11l-.1-.06-.58.67.13.08c.57.37,1.05.7,1.48,1a9,9,0,0,1-1.74,1l-.14.06.49.79.11-.05a9.64,9.64,0,0,0,2-1.22c.35.31.7.64,1,.93l0,0a8.2,8.2,0,0,1-1.07,1.23c-.47-.33-1-.65-1.48-1l-.1-.07-.57.7.12.08c.4.25.83.54,1.29.89a9.3,9.3,0,0,1-1.69,1l-.14.06.49.76h-3.56l0-1.31h3.08v-1h-3.1v-1h3v-1h-3v-.7a13,13,0,0,0,3.22-1.08l.13-.06-.56-.9-.11,0a14.09,14.09,0,0,1-3.59,1.07l-.12,0,.15,5.87h-1.16v2.79h1Zm4.76-1a9.56,9.56,0,0,0,2-1.19c.48.43.86.79,1.22,1.16l.07.07h-3.34Z" transform="translate(-56.54 -34.7)"/><path class="a" d="M177.51,158.4H169.9v0l0-.1a20.65,20.65,0,0,0,4.65-2l.07,0v-.82H164.51v1h8a22.2,22.2,0,0,1-2.9,1h0l-.25.06h0l-.47.12-.23.05-.16,0,.08.15a4.81,4.81,0,0,1,.26.63h-7.29v.95h7.57a6.77,6.77,0,0,1,.19,1.28c0,.45,0,.65-.15.74a.5.5,0,0,1-.34.09,4.84,4.84,0,0,1-1.81-.41l-.2-.08.09,1.12.09,0a6.54,6.54,0,0,0,2,.36,1.45,1.45,0,0,0,1-.3c.3-.25.42-.72.42-1.55a6,6,0,0,0-.17-1.28h7.35Z" transform="translate(-56.54 -34.7)"/><path class="a" d="M104.07,157.15l-.17-1-.16.09a12.24,12.24,0,0,1-1.48.69v-4.66h1.79v-.94h-1.79v-4.45h-1v4.45H99.17v.94h2.07v5.06c-.73.28-1.41.54-2.23.77l-.16,0,.53,1,.11,0a30.8,30.8,0,0,0,4.49-1.88Z" transform="translate(-56.54 -34.7)"/><path class="a" d="M114.3,158.9a12.21,12.21,0,0,1-.33,2.32c-.07.23-.19.23-.22.23-.2,0-.58-.36-1-1.38a11.33,11.33,0,0,1-.68-1.82h0a16.14,16.14,0,0,0,2.13-6l0-.13-1.07-.21,0,.13a19.35,19.35,0,0,1-1.45,4.72c-.13-.55-.26-1.17-.36-1.79a39.36,39.36,0,0,1-.42-4.4H115v-1h-4.18c0-1-.07-2-.07-3.16v-.13h-1.08v.13c0,1.27,0,2.25.06,3.16h-5.06v5a11,11,0,0,1-.7,4.28,7.16,7.16,0,0,1-2,2.68l-.1.09.65.82.11-.09a8.12,8.12,0,0,0,2.22-2.89,11.34,11.34,0,0,0,.84-4.79v-.77h2.53a21.53,21.53,0,0,1-.37,4.06c-.18.54-.44.54-.52.54a4.09,4.09,0,0,1-1.42-.29l-.17-.06v1.11l.09,0a5.9,5.9,0,0,0,1.64.3c.54,0,1-.34,1.21-1a24.12,24.12,0,0,0,.57-5.5V153h-3.56v-2.4h4.09a41.71,41.71,0,0,0,.57,5,24.24,24.24,0,0,0,.57,2.44,13.74,13.74,0,0,1-3.47,3.35l-.12.08.63.77.1-.07a13.7,13.7,0,0,0,3.23-2.89,10.88,10.88,0,0,0,.72,1.63c.55,1,1.12,1.53,1.73,1.61a1,1,0,0,0,1-.46,6.75,6.75,0,0,0,.58-2.52v-.08l-1-.76Z" transform="translate(-56.54 -34.7)"/><path class="a" d="M113.1,149.35l.06.15.91-.63,0-.1a10.5,10.5,0,0,0-1.47-2.17l-.08-.08-.83.56.1.11A9.43,9.43,0,0,1,113.1,149.35Z" transform="translate(-56.54 -34.7)"/><path class="b" d="M286.06,35.05,137,73.8a3.65,3.65,0,0,0-.89.38,2.88,2.88,0,0,0-.71.69L103.08,117.6a.75.75,0,0,0-.12.45.57.57,0,0,0,.4.53l32.39,7,1.9.66,6,1.31,4.14.57L188.51,137l3.66,1.1,4.68,1,3.2.4,63.56,13.73Z" transform="translate(-56.54 -34.7)"/><path class="c" d="M290.66,50.08a4.72,4.72,0,0,1,.17,1.14,4.13,4.13,0,0,1-.15,1L265,152.61c-.15.59-.48,1-.73,1l-.42-.09L286.39,34.7Z" transform="translate(-56.54 -34.7)"/><path class="d" d="M263.82,153.52,286.39,34.7,137,73.55a3.69,3.69,0,0,0-1,.41,3,3,0,0,0-.78.76l-32.55,43a.65.65,0,0,0,.42,1.11l34.56,7.46a16.14,16.14,0,0,1-6.45-4.14,17.76,17.76,0,0,1-3.69-14.05c1.88-13.61,11.66-19.71,20.7-19.71a24.48,24.48,0,0,1,11.63,2.47l-.53,6.06h-4.45l.2-2.34c-1.63-1-7.44-1.93-12.23,0-5.63,2.59-8.05,9.27-8.37,13.76-.22,3.2.23,7.39,2.48,10.42s8.57,5.38,16,2.89c3.3-1.16,4.78,2.26,4.78,2.26l-.35.19a23.47,23.47,0,0,1-13.67,3.48l48.47,10.45,6.75-12.35-7.54-23.58h-3.14l.37-4.26h8l6.47,20.19,8.94-16.35a6.78,6.78,0,0,1,6.43-3.84h1.64L197.57,138a7.75,7.75,0,0,1-.72,1.1ZM160.61,97.86h9.7l-2.6,29.83s-6.37.32-5.81-6.16l1.69-19.41h-3.35Zm10.28-5.29a3.53,3.53,0,0,1-3.44,3.17,2.86,2.86,0,0,1-2.9-3.17A3.54,3.54,0,0,1,168,89.41,2.85,2.85,0,0,1,170.89,92.57Zm5,.42,6.49-1.57-.57,6.44h4.88l-.36,4.13h-4.87L180,118.45a6.67,6.67,0,0,0,.56,3.94,2.57,2.57,0,0,0,2.38,1.16,3.34,3.34,0,0,1,3.53,3.52,27.26,27.26,0,0,1-4.67.63c-3,0-5.25-.82-6.57-2.46s-1.81-4.11-1.52-7.45Zm75.41,17.77a37.52,37.52,0,0,1-1.27,7.78,14,14,0,0,1-2.91,4.86c-2.56,2.86-6.28,4.31-11,4.31s-8.4-1.28-10.49-3.8-2.61-6.44-2.15-11.75l1.24-14.31h-4l.37-4.2H231.4l-.34,4.2-1.14,12.79a36.21,36.21,0,0,0-.1,7,6.44,6.44,0,0,0,1.33,3.37,7,7,0,0,0,5.81,2.5,8.57,8.57,0,0,0,6.14-2.34c1.59-1.46,2.55-4.62,3-9.4l1.24-14.29a4.27,4.27,0,0,1,4.49-3.82h1Z" transform="translate(-56.54 -34.7)"/></svg>