<?xml version="1.0" encoding="utf-8"?>
<!-- Generator: Adobe Illustrator 16.0.0, SVG Export Plug-In . SVG Version: 6.00 Build 0)  -->
<!DOCTYPE svg PUBLIC "-//W3C//DTD SVG 1.1//EN" "http://www.w3.org/Graphics/SVG/1.1/DTD/svg11.dtd" [
	<!ENTITY ns_extend "http://ns.adobe.com/Extensibility/1.0/">
	<!ENTITY ns_ai "http://ns.adobe.com/AdobeIllustrator/10.0/">
	<!ENTITY ns_graphs "http://ns.adobe.com/Graphs/1.0/">
	<!ENTITY ns_vars "http://ns.adobe.com/Variables/1.0/">
	<!ENTITY ns_imrep "http://ns.adobe.com/ImageReplacement/1.0/">
	<!ENTITY ns_sfw "http://ns.adobe.com/SaveForWeb/1.0/">
	<!ENTITY ns_custom "http://ns.adobe.com/GenericCustomNamespace/1.0/">
	<!ENTITY ns_adobe_xpath "http://ns.adobe.com/XPath/1.0/">
]>
<svg version="1.1" id="图层_1" xmlns:x="&ns_extend;" xmlns:i="&ns_ai;" xmlns:graph="&ns_graphs;"
	 xmlns="http://www.w3.org/2000/svg" xmlns:xlink="http://www.w3.org/1999/xlink" x="0px" y="0px" width="720px" height="474.156px"
	 viewBox="0 33.126 720 474.156" enable-background="new 0 33.126 720 474.156" xml:space="preserve">
<metadata>
	<sfw  xmlns="&ns_sfw;">
		<slices></slices>
		<sliceSourceBounds  height="474.156" width="720" x="-0.5" y="33.218" bottomLeftOrigin="true"></sliceSourceBounds>
	</sfw>
</metadata>
<title>index_nsfc</title>
<path fill="#003385" d="M231.167,323.409l-0.815,1.223c-4.485,6.115-8.562,12.231-12.639,18.754
	c-5.708,10.601-5.708,18.755-0.408,26.909c15.085,21.607,74.202-8.97,141.472-52.594c-22.423-3.262-37.916-23.646-34.655-46.07
	c3.262-22.424,23.647-37.916,46.07-34.655c19.978,2.854,35.063,19.978,35.063,40.363c0,3.669-0.408,6.931-1.631,10.192
	c78.687-53.409,121.087-59.932,103.556-85.617c-17.53-25.685-57.894-19.978-57.894-19.978l0,0
	c19.162-3.669,39.14-4.484,58.709-2.854L359.185,33.126L203.443,186.829c15.9-2.854,31.393-0.408,31.393,0.408
	c0,1.223-46.478,4.077-48.517,23.646c-1.223,10.6,9.785,31.801,52.593,64.417c8.154,6.115,16.716,11.822,25.686,17.123
	c2.854-1.631,5.708-2.446,8.969-2.446c9.785,0,17.939,7.746,17.939,17.938c0,9.785-7.747,17.939-17.939,17.939
	c-6.523,0-12.231-3.262-15.493-8.97c-39.955-23.239-82.763-71.348-87.656-97.44L0,387.825h207.928
	c-4.485-11.008-10.193-20.792,1.63-37.916c5.708-8.562,15.085-17.938,20.793-25.277L231.167,323.409"/>
<path fill="#003385" d="M405.255,321.778c-41.585,28.539-82.355,52.186-116.603,66.047H720L544.281,215.368
	C532.865,241.053,474.972,273.67,405.255,321.778z"/>
<path fill="#FFFFFF" d="M217.712,343.386c3.669-6.522,8.154-12.639,12.639-18.754C225.458,330.34,221.382,336.455,217.712,343.386z"
	/>
<path fill="#FFFFFF" d="M230.351,324.225l0.815-1.224L230.351,324.225z"/>
<path fill="#003385" d="M69.717,504.836v-97.849h19.162l39.955,65.232v-65.232h18.347v97.849h-19.978l-39.547-63.602v63.602H69.717z
	"/>
<path fill="#003385" d="M231.167,473.035l19.162-1.631c0.408,5.3,2.854,10.601,6.931,14.27c4.077,3.262,8.97,4.893,14.27,4.484
	c5.3,0.408,10.193-1.223,14.27-4.076c2.854-2.039,4.893-5.708,4.893-9.378c0-2.038-0.815-4.077-2.039-5.707
	c-2.039-2.039-4.485-3.262-6.931-4.077c-2.446-0.815-7.339-2.039-15.9-4.077c-8.154-1.631-15.493-4.893-22.424-9.785
	c-9.785-8.562-11.823-22.831-4.893-33.839c2.854-4.485,7.339-7.746,12.231-9.785c6.115-2.446,12.639-3.669,19.162-3.262
	c12.231,0,21.608,2.854,27.724,8.154c6.116,5.3,9.785,13.454,9.785,21.608l-19.162,0.815c-0.408-4.077-2.446-8.154-5.3-11.008
	c-3.669-2.446-8.154-3.67-12.639-3.262c-4.892-0.408-9.377,0.815-13.454,3.669c-2.039,1.224-3.262,3.669-3.262,6.115
	s1.223,4.485,2.854,5.708c5.708,3.262,11.823,5.708,17.939,6.523c7.338,1.631,14.677,4.077,21.2,6.931
	c4.485,2.446,8.154,5.708,10.601,9.785c5.3,9.785,5.3,21.608-0.815,31.393c-3.262,4.893-7.747,8.562-13.046,11.008
	c-6.931,2.446-13.862,3.67-21.201,3.67c-12.231,0-22.016-2.854-28.539-8.562C236.059,492.197,231.982,482.82,231.167,473.035z"/>
<path fill="#003385" d="M395.878,504.836v-97.849h66.862v16.309h-47.293v23.238h40.771v16.716h-40.771v41.586H395.878z"/>
<path fill="#003385" d="M609.513,468.958l19.162,6.115c-2.038,9.378-7.339,17.531-14.677,23.647
	c-7.339,5.3-16.716,8.153-26.093,7.746c-12.231,0.407-23.647-4.484-32.209-13.454s-12.639-21.2-12.639-36.285
	c0-16.309,4.077-28.947,12.639-37.917c8.562-8.969,20.793-13.861,33.024-13.454c10.6-0.407,21.2,3.262,28.946,10.601
	c4.893,4.893,8.562,11.008,9.785,17.938l-19.57,4.893c-2.038-9.785-10.6-16.716-20.385-16.308
	c-6.931-0.408-13.454,2.446-17.531,7.746c-4.484,5.3-6.931,13.454-6.931,25.277c0,12.231,2.038,21.2,6.523,26.501
	c4.077,5.3,10.6,8.153,17.531,7.746c4.893,0,9.784-1.631,13.454-4.893C605.844,480.374,608.697,475.073,609.513,468.958z"/>
</svg>
