<?xml version="1.0" encoding="utf-8"?>
<!-- Generator: Adobe Illustrator 16.0.0, SVG Export Plug-In . SVG Version: 6.00 Build 0)  -->
<!DOCTYPE svg PUBLIC "-//W3C//DTD SVG 1.1//EN" "http://www.w3.org/Graphics/SVG/1.1/DTD/svg11.dtd" [
	<!ENTITY ns_extend "http://ns.adobe.com/Extensibility/1.0/">
	<!ENTITY ns_ai "http://ns.adobe.com/AdobeIllustrator/10.0/">
	<!ENTITY ns_graphs "http://ns.adobe.com/Graphs/1.0/">
	<!ENTITY ns_vars "http://ns.adobe.com/Variables/1.0/">
	<!ENTITY ns_imrep "http://ns.adobe.com/ImageReplacement/1.0/">
	<!ENTITY ns_sfw "http://ns.adobe.com/SaveForWeb/1.0/">
	<!ENTITY ns_custom "http://ns.adobe.com/GenericCustomNamespace/1.0/">
	<!ENTITY ns_adobe_xpath "http://ns.adobe.com/XPath/1.0/">
]>
<svg version="1.1" xmlns:x="&ns_extend;" xmlns:i="&ns_ai;" xmlns:graph="&ns_graphs;"
	 xmlns="http://www.w3.org/2000/svg" xmlns:xlink="http://www.w3.org/1999/xlink" x="0px" y="0px" width="640px" height="640px"
	 viewBox="0 0 640 640" enable-background="new 0 0 640 640" xml:space="preserve">
<metadata>
	<sfw  xmlns="&ns_sfw;">
		<slices></slices>
		<sliceSourceBounds  width="640" height="640" y="-49.5" x="39.5" bottomLeftOrigin="true"></sliceSourceBounds>
	</sfw>
</metadata>
<g id="Layer_2">
	<rect fill="#115EA2" width="640" height="640"/>
</g>
<g id="Layer_1">
	<path fill="#FFFFFF" d="M303.5,102.1c2.4,0.7,5.5,2.7,7.7,5c4.4,4.6,5.8,10.2,5.8,22.9v9h-18.4h-18.5l0.2-5l0.2-5h-36.2H208v5v5
		h-17.6h-17.6l0.4-11.8c0.6-16,3.3-20.6,14-24.3c4.9-1.7,9.6-1.8,58.8-1.9C282.1,101,300.8,101.4,303.5,102.1z"/>
	<path fill="#FFFFFF" d="M405,117.5V134h6.5h6.5v15v15h-6.5H405v56.5v56.6l10.2-0.3c9.8-0.3,10.3-0.4,11.5-2.8
		c1-2,1.3-21.1,1.3-87.8V101h16.5H461v94.1c0,70.9-0.3,95.2-1.2,98.2c-2.7,9-9.899,12.7-24.7,12.7H427v-6.7v-6.6l-3,4.1
		c-5.7,8-6.9,8.2-40,8.2h-29.1l0.3-13.8l0.3-13.7l7.3-0.3l7.3-0.3l-0.3-53.9l-0.3-53.8l-2.4-2.6c-1.699-1.8-3.6-2.6-7-2.8l-4.6-0.3
		l-0.3-14.8l-0.3-14.7h7.6h7.5v-16.5V101h17.5H405V117.5z"/>
	<polygon fill="#FFFFFF" points="548,203 548,305 531,305 514,305 514,203 514,101 531,101 548,101 	"/>
	<path fill="#FFFFFF" d="M150.4,107.4c10.2,8.3,11.2,19.7,2.5,29.1c-4.9,5.3-9.2,6.9-17,6.3c-4.6-0.3-6.7-1.1-9.6-3.4
		c-10-8-11-22.8-2.1-31.1c4.6-4.3,7.9-5.4,14.9-5.1C145.1,103.5,146.2,103.9,150.4,107.4z"/>
	<polygon fill="#FFFFFF" points="503.8,205.2 503.5,303.5 488,303.5 472.5,303.5 472.2,205.2 472,107 488,107 504,107 	"/>
	<path fill="#FFFFFF" d="M241,144.4c-6.6,17.5-20.5,33.3-35.5,40.6c-8.1,4-20,7-27.5,7h-4v-14.8v-14.7l6.6-1.3
		c11.4-2.2,21.3-8.8,24.4-16.2l1.2-3h17.9H242L241,144.4z"/>
	<path fill="#FFFFFF" d="M282.8,144.5c4,8.7,15.6,15.9,27.8,17.2c4.5,0.5,6.9,1.2,6.8,2c-0.1,0.7-0.2,7.6-0.2,15.4l-0.2,14l-5.7-0.6
		c-21.5-2.4-38.7-11.1-49.8-25.2c-4.5-5.8-10.8-17.5-12-22.6l-0.7-2.7h16.4h16.5L282.8,144.5z"/>
	<path fill="#FFFFFF" d="M128.3,158c16.5,6.2,27.7,18.9,33.3,38c1.6,5.5,1.9,9.7,1.9,28l-0.1,21.5l-5.7,28
		c-3.1,15.4-5.9,29-6.2,30.2c-0.5,2.3-0.7,2.3-18.1,2.3h-17.6l0.5-2.3c2.7-10.5,13.9-66.9,14.7-73.7c2-15.6-1.1-27.2-9.1-34.4
		l-4.9-4.4V173v-18.3l2.8,0.6C121.3,155.6,125.1,156.8,128.3,158z"/>
	<path fill="#FFFFFF" d="M264,191v9h27h27v14.5V229h-27c-14.9,0-26.9,0.3-26.9,0.7c0.1,0.5,0.1,17.8,0,38.5L264,306h-17h-17v-31
		c0-32.6-0.3-35.4-4.8-40.3c-4.2-4.7-6.7-5.2-28.2-5.7l-20.5-0.5v-14v-14l26.8-0.3L230,200v-9v-9h17h17V191z"/>
	<path fill="#FFFFFF" d="M217.8,237.5c0.2,0.1-0.6,9.9-1.8,21.6c-1.1,11.8-2.6,27.1-3.2,34.1l-1.1,12.8h-16.8h-16.8l0.4-2.8
		c0.3-1.5,2.1-16.7,4.1-33.7c1.9-17.1,3.7-31.5,3.8-32C186.7,236.6,216.9,236.6,217.8,237.5z"/>
	<path fill="#40B318" d="M315.4,249.1c4,1.1,10.2,5.4,14.3,9.9c3.6,4,6.7,14.4,6,20.3c-1,8.2-5.7,17-11.4,21.1
		c-14.8,10.7-34.4,6.6-43.4-9.1c-3.1-5.3-3.4-6.5-3.3-13.8c0-4.9,0.6-9.4,1.6-11.6c3-6.9,11.8-14.8,18.8-17
		C301.8,247.8,311,247.9,315.4,249.1z"/>
	<path fill="#40B318" d="M294.1,320c2.3,1.9,6.8,6.8,10,10.8c17.3,21.601,21.7,43.4,13.8,67.5c-2.4,7.3-5.8,13.2-13.7,23.3
		c-5.3,6.9-21.4,23.7-29.4,30.7c-12.1,10.601-32,24.601-50.8,35.9c-12.4,7.399-42.2,22.899-47,24.3c-1.4,0.4-5.2,2-8.5,3.6
		c-3.3,1.5-10.5,4.4-16,6.4s-11.3,4.3-13,5c-3,1.3-32.4,11-38,12.5c-28.7,7.7-67.9,17.1-71.3,16.9c-2,0,1.3-1.4,15.6-6.4
		c41.5-14.6,87.4-38.3,122.6-63.3c28-19.9,52.6-42.5,67.1-61.7c19.9-26.4,37.9-62.9,47.1-95.5c1.9-6.9,3.7-13.1,3.9-13.8
		C287.1,314.6,288.2,315.2,294.1,320z"/>
	<path fill="#FFFFFF" d="M424,356v11h8.5c9.5,0,12.8,1.1,16.8,5.9c3.7,4.399,4.2,9.399,1.8,17.1c-4,12.7-25.6,37.6-45.1,51.9
		l-8.4,6.1h10.7H419v41.7c0,31.399-0.3,42.399-1.3,44.3c-0.7,1.3-2.8,3.5-4.7,4.8c-3.1,2.101-4.3,2.2-14.9,2l-11.6-0.3l-0.3-42.3
		c-0.101-23.2-0.3-42.2-0.5-42.2c-0.101,0-2.601,0.9-5.601,2c-2.899,1.2-8,2.7-11.199,3.4L363,462.8v-16.2V430.4l5.8-2.801
		c10.9-5.3,22.4-13.699,31.5-22.899l9.2-9.2l-23.3-0.3l-23.3-0.2l0.3-13.8l0.3-13.7l13.8-0.3l13.7-0.3V356v-11h16.5H424V356z"/>
	<path fill="#FFFFFF" d="M521.3,352c-0.3,3.9-0.2,8.2,0.101,9.5l0.6,2.5h14h14v14v14h-14.5h-14.6l0.5,16.2c0.3,9,0.5,36.2,0.5,60.5
		L522,513h16.5H555v8.9c0,7.399-0.3,9.199-2.1,11.5c-4.9,6.199-4,6.1-53.9,6.1h-45.5l-0.3-13.3l-0.3-13.2H471h18.1l-0.3-55.3
		c-0.3-50.8-0.399-55.5-2.1-58.8c-2.601-5.2-5.601-6.301-18.7-6.9l-11.5-0.5V378v-13.5l16.3-0.3L489,364v-9.5V345h16.4H521.8
		L521.3,352z"/>
	<path fill="#FFFFFF" d="M446.3,430.3c1.8,0.8,3.8,2.101,4.5,3c0.7,0.9,3.8,12.3,6.8,25.4c3,13.1,5.601,24.8,5.9,26l0.5,2.3h-14.8
		h-14.8l-6.601-28.2c-3.6-15.6-6.399-28.6-6.2-29C422.5,428.4,442.8,428.9,446.3,430.3z"/>
	<path fill="#40B318" d="M297.9,457.9c8.1,2.199,21.4,8.3,29.2,13.3c7.301,4.7,21.301,18.8,26.4,26.8c7.4,11.4,12.5,24.4,16,40.9
		c2.7,13.1,2.2,13.6-4.2,4.1c-19-28.6-37.6-42.3-65.3-48.3c-16.1-3.5-44.8-2.7-63.5,1.899c-2.1,0.5-0.9-0.3,14-9.399
		c11.3-7,18.4-12.5,29.3-22.9c4.8-4.6,9.3-8.3,10-8.3C290.5,456,294.1,456.9,297.9,457.9z"/>
	<path d="M27.7,557.6c-0.3,0.301-1.2,0.4-1.9,0.101c-0.8-0.3-0.5-0.601,0.6-0.601C27.5,557,28.1,557.3,27.7,557.6z"/>
</g>
</svg>
