<?xml version="1.0" encoding="utf-8"?>
<!-- Generator: Adobe Illustrator 16.0.0, SVG Export Plug-In . SVG Version: 6.00 Build 0)  -->
<!DOCTYPE svg PUBLIC "-//W3C//DTD SVG 1.1//EN" "http://www.w3.org/Graphics/SVG/1.1/DTD/svg11.dtd" [
	<!ENTITY ns_flows "http://ns.adobe.com/Flows/1.0/">
	<!ENTITY ns_extend "http://ns.adobe.com/Extensibility/1.0/">
	<!ENTITY ns_ai "http://ns.adobe.com/AdobeIllustrator/10.0/">
	<!ENTITY ns_graphs "http://ns.adobe.com/Graphs/1.0/">
	<!ENTITY ns_vars "http://ns.adobe.com/Variables/1.0/">
	<!ENTITY ns_imrep "http://ns.adobe.com/ImageReplacement/1.0/">
	<!ENTITY ns_sfw "http://ns.adobe.com/SaveForWeb/1.0/">
	<!ENTITY ns_custom "http://ns.adobe.com/GenericCustomNamespace/1.0/">
	<!ENTITY ns_adobe_xpath "http://ns.adobe.com/XPath/1.0/">
]>
<svg version="1.1" id="Layer_1" xmlns:x="&ns_extend;" xmlns:i="&ns_ai;" xmlns:graph="&ns_graphs;"
	 xmlns="http://www.w3.org/2000/svg" xmlns:xlink="http://www.w3.org/1999/xlink" xmlns:a="http://ns.adobe.com/AdobeSVGViewerExtensions/3.0/"
	 x="0px" y="0px" width="226.771px" height="226.772px" viewBox="0 0 226.771 226.772" enable-background="new 0 0 226.771 226.772"
	 xml:space="preserve">
<metadata>
	<sfw  xmlns="&ns_sfw;">
		<slices></slices>
		<sliceSourceBounds  width="226.771" height="226.772" x="246.75" y="-384.026" bottomLeftOrigin="true"></sliceSourceBounds>
	</sfw>
</metadata>
<g>
	<g>
		<path fill="#940040" d="M134.184,27.342c-0.65,4.164-3.826,5.786-7.738,5.174c-4.359-0.683-6.84-3.133-6.385-6.039l1.916-12.24
			c0.35-2.236-2.223-1.522-2.102-2.305c0.035-0.224,0.17-0.346,0.617-0.275c1.424,0.223,2.758,0.489,3.875,0.664
			s2.469,0.328,3.893,0.551c0.447,0.07,0.537,0.227,0.504,0.451c-0.123,0.783-2.355-0.684-2.707,1.552l-1.916,12.241
			c-0.357,2.292,1.262,4.378,3.582,4.741c2.934,0.459,5.244-1.126,5.764-4.452l1.326-8.468c0.377-2.403-0.303-3.913-1.523-4.533
			c-0.396-0.205-0.813-0.299-0.773-0.551c0.027-0.167,0.105-0.299,0.439-0.245c0.727,0.113,1.809,0.34,2.955,0.52
			c1.145,0.18,2.244,0.294,2.971,0.407c0.336,0.053,0.369,0.201,0.344,0.368c-0.041,0.252-0.463,0.214-0.904,0.288
			c-1.352,0.218-2.461,1.448-2.836,3.851L134.184,27.342z"/>
		<path fill="#940040" d="M142.605,31.452c-0.914,2.069-0.463,3.289,0.164,3.969c0.588,0.631,1.375,0.669,1.18,1.109
			c-0.068,0.155-0.176,0.262-0.486,0.124c-0.881-0.389-1.867-0.886-2.928-1.355c-1.061-0.468-2.094-0.862-2.973-1.251
			c-0.311-0.137-0.305-0.289-0.236-0.444c0.193-0.44,0.752,0.116,1.613,0.126c0.926,0.006,2.131-0.482,3.045-2.552l4.996-11.308
			c-0.305-1.619-0.881-2.276-1.662-2.745c-0.393-0.235-0.572-0.314-0.447-0.6c0.092-0.207,0.229-0.239,0.436-0.147
			c0.881,0.389,1.814,0.864,2.771,1.287l2.898,1.281l4.119,15.737l0.053,0.023l3.385-7.66c0.914-2.07,0.463-3.29-0.164-3.969
			c-0.588-0.631-1.375-0.669-1.182-1.109c0.07-0.154,0.178-0.261,0.488-0.123c0.881,0.389,1.867,0.886,2.928,1.354
			s2.094,0.863,2.973,1.251c0.311,0.138,0.305,0.289,0.236,0.444c-0.193,0.44-0.752-0.116-1.615-0.125
			c-0.924-0.006-2.129,0.482-3.043,2.552l-5.889,13.326c-0.217,0.492-0.402,0.843-0.609,0.751c-0.234-0.103-0.277-0.493-0.373-0.907
			l-4.984-19.521l-0.051-0.023L142.605,31.452z"/>
		<path fill="#940040" d="M169.453,31.393c1.316-1.841-1.305-2.359-0.844-3.003c0.133-0.185,0.307-0.233,0.674,0.03
			c1.174,0.839,2.246,1.675,3.166,2.334c0.92,0.658,2.057,1.402,3.23,2.242c0.369,0.263,0.379,0.444,0.246,0.628
			c-0.461,0.645-1.797-1.669-3.113,0.172l-8.527,11.917c-1.316,1.841,1.303,2.359,0.842,3.003c-0.131,0.184-0.305,0.233-0.674-0.03
			c-1.174-0.839-2.244-1.675-3.164-2.334c-0.922-0.658-2.059-1.402-3.232-2.242c-0.367-0.263-0.377-0.444-0.246-0.628
			c0.461-0.645,1.799,1.668,3.115-0.172L169.453,31.393z"/>
		<path fill="#940040" d="M187.305,50.847c0.566-0.225,1.156-0.589,1.607-1.017c1.973-1.868-0.174-3.187,0.34-3.672
			c0.102-0.098,0.342-0.091,0.557,0.135c0.66,0.698,1.262,1.415,1.924,2.113c0.643,0.677,1.324,1.316,1.986,2.015
			c0.391,0.41,0.541,0.734,0.355,0.909c-0.596,0.564-1.252-1.814-5.355-0.224l-15.066,5.817c-0.344,0.131-0.666,0.242-0.783,0.119
			s0.012-0.439,0.162-0.776l7.303-16.313c1.043-2.353-0.578-3.037-0.168-3.426c0.102-0.098,0.303-0.092,0.477,0.093
			c0.992,1.047,1.828,2.01,2.723,2.955c0.875,0.924,1.813,1.83,2.688,2.754c0.35,0.369,0.385,0.57,0.24,0.706
			c-0.43,0.409-1.258-1.534-2.348-0.503c-0.287,0.272-0.477,0.607-0.604,0.884l-5.178,10.987L187.305,50.847z"/>
		<path fill="#940040" d="M195.457,57.127c1.943-1.16-0.25-2.684,0.43-3.09c0.193-0.115,0.373-0.091,0.605,0.298
			c0.74,1.238,1.387,2.434,1.967,3.405c1.799,3.012,3.533,5.863,5.27,8.715l-3.914,3.984c-0.307,0.314-0.473,0.479-0.545,0.522
			c-0.121,0.073-0.238,0.043-0.34-0.127c-0.131-0.218,0.297-0.44,1.311-2.33c1.213-2.273,1.266-4.446-0.473-7.361l-0.783-1.312
			l-6.996,4.176l0.363,0.607c1.014,1.701,3.018,2.186,4.824,1.238c0.5-0.266,0.664-0.265,0.811-0.022
			c0.086,0.146,0.023,0.315-0.195,0.446l-7.434,4.437c-0.219,0.13-0.398,0.106-0.484-0.04c-0.145-0.243-0.066-0.389,0.404-0.703
			c2.104-1.388,2.506-3.308,1.49-5.008l-0.361-0.607l-6.121,3.654c-1.117,0.667-1.439,1.452-0.512,3.007
			c2.262,3.789,6.176,4.22,9.031,3.537c0.547-0.13,0.781-0.236,0.91-0.018c0.102,0.17,0.025,0.315-0.121,0.402
			s-0.467,0.213-0.762,0.323l-6.031,2.15c-1.891-3.221-3.795-6.466-5.811-9.842c-0.578-0.972-1.324-2.108-2.063-3.347
			c-0.232-0.389-0.17-0.559,0.025-0.675c0.68-0.406,0.979,2.248,2.922,1.089L195.457,57.127z"/>
		<path fill="#940040" d="M199.576,89.107c1.166-1.052,1.25-2.463,0.787-4.037l-6.512,1.921c-2.172,0.64-0.426,2.661-1.186,2.886
			c-0.217,0.063-0.385-0.005-0.512-0.439c-0.408-1.384-0.738-2.702-1.059-3.788s-0.758-2.372-1.166-3.755
			c-0.129-0.434-0.025-0.583,0.193-0.646c0.76-0.224,0.389,2.422,2.559,1.781l14.057-4.145c2.17-0.64,0.424-2.662,1.184-2.886
			c0.217-0.063,0.385,0.005,0.512,0.438c0.408,1.384,0.738,2.702,1.059,3.788c0.4,1.357,0.799,2.507,1.326,4.298
			c1.369,4.64,0.035,7.717-2.732,8.533c-2.279,0.673-4.596-0.179-6.84-5.592l-0.055,0.016c0.855,2.903,0.615,4.685-1.107,6.344
			l-3.336,3.195c-1.814,1.744-0.256,3.231-1.016,3.455c-0.162,0.048-0.307,0.061-0.379-0.184c-0.287-0.977-0.521-1.97-0.809-2.946
			l-0.865-2.931L199.576,89.107z M200.852,84.927l0.313,1.058c0.902,3.066,2.822,3.975,5.699,3.126
			c2.984-0.88,3.801-2.713,3.121-5.02l-0.504-1.71L200.852,84.927z"/>
		<path fill="#940040" d="M203.279,101.926c0.34-0.017,0.43,0.093,0.438,0.262c0.014,0.283-0.41,0.303-0.998,0.445
			c-3.555,0.852-7.076,2.438-6.875,6.563c0.139,2.882,1.688,4.448,3.863,4.345c5.707-0.276,2.363-11.443,9.371-11.782
			c3.334-0.162,5.957,2.544,6.127,6.048c0.127,2.655-0.934,4.123-0.896,4.914c0.049,0.989,0.818,0.527,0.844,1.035
			c0.01,0.197-0.07,0.314-0.492,0.364l-5.316,0.767c-0.533,0.083-0.787,0.123-0.928,0.13c-0.197,0.01-0.287-0.071-0.293-0.212
			c-0.014-0.283,0.578-0.34,1.686-0.848c3.076-1.394,4.867-3.01,4.717-6.146c-0.098-2.006-1.051-3.546-3.197-3.442
			c-4.635,0.225-1.508,11.572-9.166,11.942c-3.758,0.182-6.793-2.844-6.998-7.11c-0.137-2.797,1.1-4.188,1.047-5.29
			c-0.055-1.102-1.006-0.886-1.029-1.366c-0.008-0.141,0.045-0.229,0.242-0.238L203.279,101.926z"/>
		<path fill="#940040" d="M212.02,124.509c2.244,0.302,1.475-2.257,2.26-2.151c0.225,0.03,0.35,0.161,0.289,0.61
			c-0.193,1.43-0.43,2.768-0.58,3.89c-0.15,1.121-0.275,2.475-0.467,3.904c-0.061,0.448-0.217,0.542-0.439,0.512
			c-0.785-0.105,0.631-2.369-1.611-2.671l-14.523-1.95c-2.242-0.302-1.473,2.257-2.258,2.151c-0.225-0.03-0.35-0.161-0.289-0.61
			c0.191-1.43,0.428-2.769,0.578-3.89s0.275-2.475,0.469-3.904c0.059-0.449,0.215-0.542,0.439-0.512
			c0.785,0.105-0.633,2.369,1.609,2.671L212.02,124.509z"/>
		<path fill="#940040" d="M209.641,143.413c0.338-5.796-3.701-7.452-3.494-8.069c0.045-0.134,0.162-0.214,0.35-0.151
			c0.107,0.036,0.518,0.234,0.92,0.459l4.609,2.534c0.375,0.216,0.455,0.332,0.41,0.467c-0.045,0.134-0.162,0.214-0.314,0.312
			c-0.125,0.107-0.35,0.241-0.475,0.616l-4.039,12.013c-0.127,0.376-0.029,0.617,0.006,0.778c0.063,0.171,0.107,0.305,0.063,0.438
			c-0.045,0.135-0.18,0.179-0.609,0.124l-5.203-0.765c-0.457-0.063-0.904-0.154-1.012-0.19c-0.188-0.063-0.232-0.198-0.186-0.332
			c0.207-0.616,4.426,0.504,7.658-4.319l-14.854-4.994c-1.717-0.576-2.371,0.129-2.814,1.442c-0.107,0.321-0.242,0.456-0.51,0.365
			c-0.215-0.072-0.25-0.233-0.15-0.528c0.514-1.528,1.027-2.877,1.451-4.138s0.83-2.646,1.344-4.175
			c0.098-0.295,0.225-0.401,0.438-0.329c0.27,0.09,0.295,0.277,0.188,0.6c-0.441,1.313-0.346,2.271,1.369,2.849L209.641,143.413z"/>
		<path fill="#940040" d="M190.57,163.24l2.146,3.938c0.715,1.313,1.645,2.226,2.293,2.63c1.609,1.003,2.297-0.636,2.682-0.396
			c0.143,0.09,0.174,0.31-0.035,0.646c-0.48,0.768-0.887,1.314-1.486,2.274c-0.463,0.744-0.895,1.542-1.344,2.263
			c-0.104,0.168-0.26,0.204-0.404,0.114c-0.48-0.299,0.871-1.023-1.523-5.684l-2.963-5.78l-5.787-3.606
			c-1.92-1.197-2.27,1.451-2.943,1.032c-0.191-0.12-0.252-0.291-0.012-0.675c0.764-1.225,1.529-2.347,2.127-3.308
			c0.6-0.96,1.27-2.142,2.033-3.366c0.238-0.384,0.42-0.405,0.611-0.285c0.672,0.419-1.551,1.899,0.369,3.097l5.33,3.322
			l9.443,0.519c2.539,0.15,2.752-1.583,3.258-1.269c0.168,0.104,0.174,0.309,0.01,0.572c-0.734,1.177-1.471,2.251-2.174,3.379
			s-1.344,2.263-2.047,3.392c-0.225,0.359-0.4,0.482-0.568,0.378c-0.506-0.314,1.014-1.468-0.33-2.306
			c-0.408-0.254-0.883-0.35-1.613-0.406L190.57,163.24z"/>
	</g>
	<g>
		<path fill="#940040" d="M42.146,169.161c-0.281,0.188-0.414,0.142-0.51,0c-0.156-0.235,0.197-0.471,0.627-0.895
			c2.611-2.561,4.813-5.731,2.52-9.166c-1.602-2.4-3.738-2.947-5.549-1.738c-4.752,3.174,3.861,11.029-1.973,14.925
			c-2.775,1.854-6.418,0.884-8.365-2.033c-1.477-2.212-1.32-4.016-1.762-4.675c-0.551-0.823-0.973-0.03-1.254-0.454
			c-0.111-0.164-0.104-0.306,0.234-0.565l4.164-3.393c0.414-0.345,0.609-0.51,0.727-0.589c0.166-0.11,0.283-0.087,0.361,0.031
			c0.158,0.235-0.32,0.589-1.01,1.594c-1.92,2.778-2.625,5.086-0.881,7.697c1.115,1.671,2.725,2.501,4.514,1.307
			c3.857-2.576-4.662-10.698,1.713-14.956c3.129-2.089,7.287-1.057,9.66,2.496c1.557,2.328,1.213,4.157,1.824,5.074
			c0.613,0.918,1.318,0.242,1.586,0.643c0.078,0.117,0.078,0.219-0.086,0.329L42.146,169.161z"/>
		<path fill="#940040" d="M21.912,152.426c-2.145,0.722-0.324,2.676-1.074,2.929c-0.215,0.071-0.385,0.01-0.529-0.42
			c-0.459-1.367-0.84-2.672-1.201-3.744c-0.359-1.073-0.848-2.342-1.307-3.709c-0.145-0.429-0.047-0.582,0.168-0.654
			c0.75-0.252,0.48,2.405,2.625,1.684l6.168-2.074l-2.365-7.025l-6.166,2.075c-2.145,0.722-0.322,2.676-1.074,2.929
			c-0.213,0.072-0.385,0.01-0.529-0.42c-0.459-1.367-0.84-2.672-1.199-3.745c-0.361-1.072-0.848-2.341-1.309-3.708
			c-0.145-0.43-0.047-0.581,0.168-0.653c0.75-0.253,0.482,2.405,2.625,1.684l13.891-4.674c2.145-0.722,0.322-2.676,1.074-2.929
			c0.215-0.072,0.385-0.01,0.527,0.419c0.461,1.367,0.84,2.672,1.201,3.744c0.361,1.073,0.848,2.342,1.307,3.71
			c0.146,0.429,0.047,0.581-0.166,0.653c-0.752,0.253-0.482-2.405-2.627-1.683l-7.078,2.381l2.363,7.025l7.078-2.382
			c2.146-0.722,0.324-2.676,1.074-2.929c0.215-0.072,0.385-0.01,0.529,0.419c0.459,1.367,0.84,2.673,1.201,3.745
			c0.359,1.072,0.848,2.342,1.307,3.709c0.145,0.429,0.047,0.581-0.168,0.653c-0.75,0.253-0.48-2.405-2.625-1.684L21.912,152.426z"
			/>
		<path fill="#940040" d="M14.678,124.523c-2.26,0.109-1.039,2.486-1.83,2.524c-0.227,0.012-0.373-0.095-0.396-0.547
			c-0.07-1.441-0.078-2.801-0.133-3.931c-0.172-3.503-0.363-6.836-0.555-10.169l5.328-1.676c0.42-0.134,0.643-0.201,0.727-0.206
			c0.141-0.006,0.23,0.074,0.24,0.271c0.014,0.255-0.469,0.25-2.252,1.441c-2.139,1.436-3.207,3.329-3.043,6.72l0.074,1.525
			l8.137-0.396l-0.033-0.707c-0.096-1.978-1.637-3.347-3.676-3.361c-0.566,0-0.713-0.078-0.725-0.36
			c-0.01-0.17,0.127-0.29,0.381-0.302l8.646-0.422c0.254-0.013,0.4,0.094,0.408,0.264c0.014,0.282-0.123,0.373-0.686,0.43
			c-2.51,0.235-3.768,1.741-3.672,3.719l0.035,0.707l7.121-0.348c1.299-0.063,1.953-0.605,1.863-2.413
			c-0.215-4.408-3.467-6.629-6.307-7.368c-0.545-0.144-0.801-0.159-0.813-0.413c-0.01-0.198,0.127-0.29,0.297-0.298
			s0.51,0.031,0.824,0.073l6.334,0.937c0.154,3.731,0.309,7.491,0.5,11.419c0.055,1.13,0.178,2.483,0.248,3.925
			c0.021,0.451-0.113,0.571-0.34,0.582c-0.791,0.039,0.193-2.445-2.068-2.334L14.678,124.523z"/>
		<path fill="#940040" d="M27.451,101.007c2.211,0.484,3.318-0.2,3.859-0.95c0.5-0.701,0.383-1.479,0.852-1.377
			c0.164,0.036,0.291,0.122,0.219,0.453c-0.205,0.939-0.498,2.005-0.746,3.139c-0.248,1.133-0.428,2.223-0.635,3.162
			c-0.072,0.331-0.223,0.356-0.389,0.32c-0.469-0.104-0.035-0.762-0.199-1.607c-0.176-0.908-0.895-1.992-3.105-2.477l-12.074-2.646
			c-1.527,0.621-2.055,1.316-2.359,2.176c-0.152,0.431-0.195,0.624-0.5,0.557c-0.221-0.048-0.279-0.177-0.23-0.398
			c0.207-0.939,0.484-1.95,0.709-2.972l0.678-3.095l14.604-7.167l0.014-0.056l-8.18-1.792c-2.211-0.484-3.316,0.2-3.859,0.95
			c-0.5,0.701-0.381,1.48-0.852,1.378c-0.164-0.036-0.291-0.122-0.219-0.454c0.207-0.94,0.498-2.006,0.746-3.139
			s0.43-2.223,0.637-3.161c0.07-0.332,0.221-0.356,0.387-0.32c0.471,0.103,0.035,0.761,0.199,1.607
			c0.178,0.907,0.895,1.991,3.105,2.476l14.23,3.119c0.525,0.115,0.906,0.228,0.857,0.449c-0.053,0.249-0.428,0.369-0.814,0.545
			l-18.139,8.767l-0.014,0.056L27.451,101.007z"/>
		<path fill="#940040" d="M37.988,79.004c1.369-2.92,0.854-5.35-0.217-7.196c-1.084-1.884-2.633-2.58-2.43-3.015
			c0.049-0.102,0.188-0.194,0.391-0.098c0.154,0.072,0.502,0.329,0.941,0.66l4.91,3.585c-0.986,2.037-1.998,4.125-2.984,6.225
			c-0.984,2.1-1.92,4.224-2.906,6.324c-0.094,0.205-0.271,0.248-0.373,0.199c-0.129-0.06-0.26-0.247-0.482-0.57L23.314,68.055
			l-0.721,1.536c-1.334,2.843-1.137,5.154,0.283,7.32c1.275,1.942,1.68,1.882,1.523,2.215c-0.072,0.154-0.174,0.169-0.301,0.109
			c-0.078-0.037-0.258-0.185-0.594-0.467l-4.291-3.576c0.865-1.844,1.793-3.688,2.682-5.584c0.891-1.896,1.717-3.789,2.631-5.735
			c0.156-0.332,0.268-0.374,0.396-0.313s0.326,0.372,0.59,0.745l11.49,16.799L37.988,79.004z"/>
		<path fill="#940040" d="M31.111,57.512c-1.766-1.416-2.426,1.172-3.043,0.677c-0.178-0.142-0.219-0.318,0.066-0.672
			c0.902-1.125,1.795-2.149,2.504-3.032c0.707-0.883,1.514-1.978,2.414-3.103c0.285-0.354,0.467-0.353,0.643-0.211
			c0.617,0.496-1.766,1.703,0,3.119l5.076,4.071l4.637-5.782l-5.076-4.07c-1.764-1.416-2.428,1.172-3.045,0.677
			c-0.176-0.142-0.215-0.318,0.068-0.672c0.902-1.125,1.795-2.149,2.504-3.032c0.707-0.883,1.514-1.978,2.416-3.103
			c0.283-0.353,0.465-0.353,0.641-0.211c0.617,0.496-1.766,1.703,0,3.12l11.432,9.167c1.766,1.416,2.428-1.172,3.045-0.677
			c0.176,0.142,0.215,0.318-0.066,0.672c-0.902,1.125-1.797,2.149-2.504,3.032c-0.709,0.882-1.514,1.977-2.418,3.103
			c-0.281,0.353-0.463,0.353-0.641,0.211c-0.617-0.496,1.766-1.703,0-3.119l-5.826-4.672l-4.637,5.782l5.826,4.672
			c1.766,1.416,2.426-1.172,3.045-0.677c0.178,0.142,0.217,0.318-0.066,0.672c-0.904,1.125-1.797,2.149-2.506,3.032
			c-0.707,0.882-1.512,1.977-2.414,3.103c-0.283,0.353-0.465,0.353-0.641,0.211c-0.619-0.495,1.764-1.703-0.002-3.119L31.111,57.512
			z"/>
		<path fill="#940040" d="M50.658,36.358c-1.316-1.841-2.652,0.473-3.113-0.172c-0.133-0.185-0.123-0.365,0.246-0.629
			c1.174-0.84,2.311-1.583,3.23-2.242c2.854-2.041,5.553-4.006,8.25-5.971l4.295,3.572c0.338,0.279,0.516,0.43,0.564,0.499
			c0.084,0.115,0.063,0.233-0.098,0.349c-0.207,0.148-0.465-0.259-2.432-1.113c-2.365-1.021-4.535-0.895-7.295,1.081l-1.242,0.889
			l4.738,6.626l0.576-0.411c1.609-1.152,1.928-3.188,0.836-4.911c-0.309-0.476-0.32-0.641-0.092-0.805
			c0.139-0.099,0.313-0.05,0.461,0.157l5.037,7.041c0.148,0.207,0.139,0.388,0,0.487c-0.23,0.164-0.381,0.099-0.734-0.345
			c-1.555-1.982-3.502-2.224-5.113-1.072l-0.574,0.411l4.146,5.799c0.758,1.059,1.566,1.314,3.039,0.261
			c3.588-2.567,3.695-6.504,2.779-9.292c-0.176-0.536-0.301-0.76-0.094-0.908c0.16-0.115,0.313-0.049,0.41,0.088
			c0.102,0.138,0.252,0.447,0.387,0.733l2.641,5.832c-3.053,2.149-6.129,4.315-9.328,6.604c-0.92,0.658-1.99,1.494-3.164,2.333
			c-0.369,0.263-0.543,0.214-0.676,0.03c-0.459-0.644,2.16-1.162,0.844-3.003L50.658,36.358z"/>
		<path fill="#940040" d="M76.844,34.616c0.799,2.118,1.975,2.672,2.898,2.716c0.863,0.038,1.449-0.485,1.621-0.036
			c0.059,0.159,0.055,0.312-0.262,0.432c-0.9,0.339-1.953,0.675-3.037,1.085c-1.084,0.409-2.098,0.852-2.998,1.191
			c-0.316,0.119-0.42,0.007-0.48-0.152c-0.168-0.45,0.619-0.445,1.24-1.042c0.664-0.644,1.182-1.837,0.383-3.955L71.846,23.29
			c-1.354-0.941-2.225-1.005-3.111-0.792c-0.441,0.107-0.629,0.177-0.738-0.115c-0.078-0.211-0.004-0.331,0.209-0.41
			c0.9-0.34,1.898-0.656,2.877-1.026l2.965-1.118l13.969,8.336l0.053-0.021l-2.955-7.834c-0.799-2.118-1.975-2.672-2.898-2.716
			c-0.861-0.038-1.449,0.486-1.619,0.036c-0.061-0.159-0.057-0.312,0.26-0.432c0.9-0.339,1.953-0.676,3.039-1.085
			c1.084-0.409,2.096-0.852,2.996-1.191c0.318-0.119,0.42-0.007,0.48,0.152c0.17,0.45-0.617,0.445-1.24,1.042
			c-0.664,0.643-1.182,1.836-0.383,3.954l5.143,13.631c0.189,0.503,0.303,0.883,0.092,0.963c-0.238,0.09-0.543-0.158-0.9-0.386
			L72.844,23.851l-0.053,0.02L76.844,34.616z"/>
	</g>
	<g>
		<circle fill="#940040" cx="62.885" cy="191.632" r="2.652"/>
	</g>
	<g>
		<circle fill="#940040" cx="163.664" cy="191.632" r="2.652"/>
	</g>
	<g>
		<path fill="#940040" d="M83.566,207.369c-0.377,1.127,0.123,1.951,1.625,2.544c1.422,0.565,1.715,0.664,1.58,1.066
			c-0.053,0.161-0.24,0.277-0.535,0.178c-1.826-0.611-3.666-1.258-5.393-1.806c-1.832-0.585-3.691-1.178-5.516-1.789
			c-0.297-0.099-0.377-0.305-0.322-0.466c0.135-0.402,0.43-0.303,1.904,0.102c1.557,0.432,2.453,0.075,2.828-1.051l4.197-12.526
			c0.207-0.617,0.092-0.806-0.393-0.967l-3.646-1.223c-0.242-0.081-0.34-0.233-0.277-0.421c0.135-0.402,0.607-0.035,3.014,0.443
			c3.605,0.729,5.359-0.233,5.895-0.054c0.242,0.081,0.305,0.251,0.152,0.706L83.566,207.369z"/>
		<path fill="#940040" d="M103.314,194.391c4.641,0.497,7.068,4.398,6.564,9.096c-0.869,8.128-11.467,10.124-12.732,9.988
			c-0.141-0.015-0.158-0.103-0.145-0.243c0.035-0.338,5.99-1.208,8.309-7.987c-1.172,0.586-2.377,0.94-3.896,0.778
			c-4.584-0.491-6.268-3.63-5.967-6.442C95.809,196.205,98.561,193.882,103.314,194.391z M102.275,205.432
			c1.35,0.145,2.938-0.596,3.313-1.182c0.137-0.213,0.426-1.32,0.549-2.474c0.545-5.091-0.906-6.669-2.988-6.892
			c-1.605-0.171-3.338,0.61-3.801,4.942C98.934,203.68,100.447,205.236,102.275,205.432z"/>
		<path fill="#940040" d="M118.223,204.563c-1.771-1.097-2.572-2.475-2.697-3.94c-0.264-3.044,2.459-5.721,6.377-6.059
			c3.24-0.28,5.834,1.483,6.047,3.936c0.143,1.662-0.625,3.291-1.898,4.338c2.205,0.547,3.621,2.47,3.828,4.865
			c0.279,3.241-2.709,6.111-7.332,6.51c-3.975,0.344-6.799-1.798-7.049-4.701C115.359,207.905,116.207,205.9,118.223,204.563z
			 M122.504,213.705c2.818-0.243,4.131-2.146,3.945-4.287c-0.131-1.522-0.859-2.709-3.969-3.548
			c-2.938-0.797-3.184-1.031-3.578-0.997c-0.508,0.044-1.791,1.631-1.582,4.055C117.584,211.972,119.459,213.968,122.504,213.705z
			 M121.973,195.067c-1.973,0.171-3.213,1.584-3.041,3.585c0.248,2.875,4.621,3.52,6.648,3.997c0.613-0.791,1.053-1.623,0.887-3.54
			C126.217,196.206,124.453,194.854,121.973,195.067z"/>
		<path fill="#940040" d="M144.449,197.556c2.082,0.685,3.814,1.773,4.496,3.961c1.139,3.645-1.496,7.549-5.438,8.779
			c-3.834,1.197-6.875,0.19-7.475-1.727c-0.328-1.053,0.125-2.262,1.232-2.607c1.377-0.43,2.223,0.195,2.852,2.015
			c0.643,1.873,1.889,2.255,3.186,1.851c2.186-0.683,3.273-2.8,2.396-5.608c-0.707-2.269-2.447-3.474-4.262-3.5
			c-1.189-0.014-2.205,0.629-2.332,0.224c-0.186-0.594,1.055-0.328,2.186-1.452c0.766-0.772,0.9-2.147,0.436-3.633
			c-0.623-1.998-2.328-2.711-4.516-2.028c-2.889,0.902-2.512,3.154-3.023,3.314c-0.137,0.043-0.25-0.04-0.293-0.175
			c-0.219-0.702,0.631-4.435,4.357-5.598c2.674-0.835,5.773-0.113,6.684,2.804C145.324,195.417,145.063,196.387,144.449,197.556z"/>
	</g>
	<g>
		<path fill="#940040" d="M113.385,226.772c-15.307,0-30.154-2.999-44.135-8.912c-13.502-5.711-25.627-13.886-36.041-24.299
			c-10.412-10.412-18.586-22.537-24.297-36.04C2.998,143.542,0,128.692,0,113.387C0,98.08,2.998,83.23,8.912,69.251
			c5.711-13.502,13.885-25.628,24.297-36.041C43.623,22.798,55.748,14.623,69.25,8.912C83.23,2.998,98.078,0,113.385,0
			s30.156,2.998,44.135,8.912c13.504,5.711,25.629,13.886,36.041,24.298c10.412,10.413,18.588,22.539,24.299,36.041
			c5.914,13.979,8.912,28.829,8.912,44.136c0,15.306-2.998,30.155-8.912,44.135c-5.711,13.503-13.887,25.628-24.299,36.04
			c-10.412,10.413-22.537,18.588-36.041,24.299C143.541,223.773,128.691,226.772,113.385,226.772L113.385,226.772z M113.385,3.979
			c-60.326,0-109.406,49.08-109.406,109.408c0,60.327,49.08,109.407,109.406,109.407c60.328,0,109.408-49.08,109.408-109.407
			C222.793,53.059,173.713,3.979,113.385,3.979L113.385,3.979z"/>
	</g>
	<g>
		<g>
			<path fill="#940040" d="M93.859,123.046c0.227,0.146,0.428,0.206,0.811,0.195c0.803-0.022,1.287-0.486,1.49-0.579
				c0.078-0.037,0.301-0.169,0.299-0.217c-0.016-0.341-1.166-0.783-1.748-0.812c-0.699-0.033-1.805,0.604-1.805,0.779
				C92.906,122.625,93.631,122.944,93.859,123.046z"/>
		</g>
		<g>
			<path fill="#940040" d="M100.652,137.097c0.328-1.668-0.26-1.221-3.752-1.34c-1.588,0-7.146-0.143-8.74,0.078
				c-0.727,0.101-0.818,0.698-0.818,1.058c0,1.206-0.303,1.07,5.67,1.072l2.328-0.181
				C99.063,137.585,100.012,138.028,100.652,137.097z"/>
		</g>
		<g>
			<path fill="#940040" d="M161.123,83.469c0,1.516,0.637,2.883,1.656,3.849l0.035,0.042l17.963,17.964l0.002,0.005
				c0.963,0.96,1.561,2.289,1.561,3.757V86.611c0-1.052-0.609-2.522-1.354-3.267l-37.688-37.688
				c-0.744-0.744-2.215-1.353-3.268-1.353h-2.777l0,0l0,0c-0.732,0-1.326,0.593-1.326,1.325v17.902c0,1.097-0.887,1.985-1.984,1.989
				h-1.994V48.283c0-2.197-1.781-3.978-3.979-3.978H98.799c-2.197,0-3.979,1.781-3.979,3.978v17.239h-1.996
				c-1.094-0.004-1.982-0.893-1.982-1.989V45.63c0-0.732-0.594-1.325-1.326-1.325l0,0h-2.777c-1.053,0-2.523,0.608-3.268,1.353
				L45.785,83.345c-0.744,0.744-1.354,2.214-1.354,3.267v22.476c0-1.469,0.598-2.798,1.561-3.758l0.002-0.005L63.957,87.36
				l0.033-0.042c1.021-0.966,1.656-2.333,1.656-3.849v2.192v1.552c0,1.469-0.596,2.797-1.561,3.758v0.004l-17.963,17.965
				l-0.035,0.043c-1.02,0.966-1.656,2.332-1.656,3.849v20.339c0-1.469,0.598-2.798,1.561-3.759l0.002-0.003l17.963-17.965
				l0.033-0.043c1.021-0.966,1.656-2.332,1.656-3.849v2.192v1.552c0,1.469-0.596,2.797-1.561,3.758v0.004l-17.963,17.965
				l-0.035,0.042c-1.02,0.967-1.656,2.333-1.656,3.849v2.993c0,1.052,0.609,2.522,1.354,3.267l5.262,5.263l12.91-12.91l0.033-0.042
				c1.021-0.967,1.656-2.333,1.656-3.849v2.192v1.552c0,1.468-0.596,2.797-1.561,3.758v0.003L52.92,150.308l30.236,30.237
				l8.178-14.714c0.701-1.3,2.076-2.182,3.654-2.182h1.252h1.908c-1.609,0-3.004,0.915-3.691,2.254l-0.002-0.002l-8.949,16.1
				c0.428,0.134,0.857,0.212,1.232,0.212h15.516l2.963-16.36c0.223-1.253,1.318-2.204,2.635-2.204h0.037h0.441h2.234
				c-1.324,0-2.424,0.963-2.639,2.226l-2.959,16.339h16.836l-2.959-16.339c-0.215-1.263-1.314-2.226-2.639-2.226h2.234h0.441h0.039
				c1.316,0,2.41,0.951,2.633,2.204l2.963,16.36h15.516c0.375,0,0.805-0.078,1.232-0.211l-8.949-16.101v0.002
				c-0.689-1.339-2.084-2.254-3.693-2.254h1.908h1.252c1.58,0,2.953,0.882,3.654,2.182l8.178,14.714l30.238-30.237l-11.166-11.168
				l-0.002-0.003c-0.965-0.961-1.561-2.29-1.561-3.758v-1.552v-2.192c0,1.516,0.637,2.882,1.656,3.849l0.035,0.042l12.908,12.911
				l5.264-5.264c0.744-0.744,1.354-2.215,1.354-3.267v-2.993c0-1.516-0.637-2.882-1.656-3.849l-0.035-0.042l-17.963-17.965
				l-0.002-0.004c-0.965-0.961-1.561-2.289-1.561-3.758v-1.552v-2.192c0,1.516,0.637,2.882,1.656,3.849l0.035,0.042l17.963,17.966
				l0.002,0.003c0.963,0.961,1.561,2.29,1.561,3.759v-20.339c0-1.517-0.637-2.883-1.656-3.85l-0.035-0.042l-17.963-17.965
				l-0.002-0.004c-0.965-0.96-1.561-2.289-1.561-3.758v-1.552V83.469z M128.109,84.7c0.584-5.54,0.723-4.971,3.797-6.121
				c3.668-0.664,5.658-1.241,7.57-1.184s6.182,0.166,10.115,1.668c1.691,0.604,1.006,1.166,1.09,7.526
				c-0.266,2.39-0.467,2.001-2.918,2.233c-2.014-0.059-3.09,0.12-5.705-0.608c-0.85-1.047-1.895-6.754-3.82-6.054
				c-0.803,0.604-0.002,0.688-1.383,3.454c-0.283,0.432-0.762,1.791-1.275,2.364c-1.967,0.906-3.664,0.642-5.898,0.721
				C127.602,88.625,128.135,87.617,128.109,84.7z M124.197,80.008c0.055-1.151-0.014-1.438,0.943-1.508
				c1.529-0.038,1.51,0.518,1.635,1.289c-0.021,1.217-0.053,3.701-0.078,6.033c-0.012,1.365,0.006,4.267-1.066,4.677
				c-1.207,0.166-1.922,0.284-1.848-1.071c-0.092-0.79,0.334-2.003,0.535-3.247C124.521,84.937,124.344,81.485,124.197,80.008z
				 M124.896,94.121c1.398,0.563,1.479,4.94,1.479,4.94c0.029,0.587,0.131,4.398,0.129,5.707c0.041,1.273,0.102,2.214-0.102,2.763
				c-0.447,0.352-0.955,0.437-1.75,0.276c-0.635-0.374-0.967-3.759-0.967-4.886s-0.031-3.736-0.361-6.272
				C122.996,94.115,123.271,94.406,124.896,94.121z M119.617,91.767c0.146-1.865,0.691-8.273,0.471-9.905
				c0.047-1.063-0.113-2.568,0.232-3.732c0.158-0.532,0.701-0.61,1.621-0.698c1.494-0.287,1.172,4.93,1.172,4.93
				c-0.139,4.519-1.348,13.396-1.348,15.729c-0.453,3.817,1.361,13.987,0.355,14.939c-0.328,0.161-1.596,0.367-1.914-0.271
				c-0.959-2.753-1.018-6.971-1.188-10.568C118.768,98.13,119.469,93.632,119.617,91.767z M115.707,85.849
				c0.441-2.74,0.229-5.864,0.475-6.702c0.256-0.272,0.973-0.474,1.826-0.281c1.012,0.718,1.334,9.579-0.918,11.343
				c-0.666,0.007-1.477,0.089-1.736-0.386C115.023,89.211,115.377,87.836,115.707,85.849z M114.512,97.756
				c0-3.569,0.363-4.177,1.063-5.232c0.77-0.388,1.783,0.147,2.127,0.585c0.494,1.251-0.35,7.543-0.459,10.34
				c-0.186,2.779,0.713,5.596-0.393,6.06c-1.176,0.396-1.986,0.041-2.08-0.76C114.367,105.387,114.512,97.756,114.512,97.756z
				 M111.297,141.407c-0.189,4.665-0.295,4.222-3.527,4.222c-2.816,0-9.844,0.01-10.309,0.053c0,0.651-0.18,2.096-0.096,3.408
				c0.107,1.819,1.145,2.291-6.303,3.054c-1.76,0.155-13.01-0.281-13.742-1.611c-0.822-1.366-2.195-3.57-1.141-5.462
				c1.588,1.257,3.1,2.23,6.512,3.461c2.73,0.476,7.17,0.885,9.449,0.212c1.607-0.661,1.559-1.131,1.467-2.868
				c-5.248-0.323-8.041-0.462-9.783-0.563c-2.879-0.347-2.727-0.312-2.773-1.749c0.145-1.154,0.434-1.441,2.305-1.326
				c1.041,0.15,3.258,0.312,6.273,0.312c2.234,0,3.979,0,3.979,0v-2.312c0,0-4.043,0.154-5.537,0.072
				c-4.766-0.203-3.996-0.88-4.238-3.047c0.406-3.881,0.398-3.358,3.91-3.596c3.016-0.059,11.547-0.212,13.758-0.135
				c3.453,0.32,2.994,0.566,2.936,3.635c-0.35,1.751,0.295,2.358-3.117,2.863c-0.613,0.006-3.885,0.248-3.885,0.248v2.271h7.688
				c0,0,2.73-0.044,2.73-2.313c0-2.269,0.32-5.695,0.32-5.695s-0.037-2.429-2.391-2.429s-15.213-0.191-20.48-0.104
				c-4.084,0.031-4.176,0.69-4.52,2.102c-0.383,1.578-0.682,8.073-1.893,7.81c-3.064-0.762-2.375-1.097-2.334-2.895
				c0.129-2.431,0.547-4.923,0.98-7.317c0.66-1.7,0.941-2.622,10.998-2.556c4.633,0,18.221-0.019,18.221-0.019
				c3.066,0.192,4.121,0.158,4.543,3.137C111.643,136.625,111.461,138.012,111.297,141.407z M81.082,120.868
				c0,0.724,1.209,0.613,3.586,0.535c2.082,0.001,1.953-0.449,2.035,1.262c0.006,0.649,0.07,0.803-1.336,0.851
				c-4.809,0.24-4.387,0.127-4.375,1.254c0.041,0.956,0.82,0.745,3.723,0.593c1.887-0.078,2.021-0.367,2.168,0.907
				c0.086,0.794-0.043,1.337-0.043,1.337c-1.379,0-6.656,0.542-7.961,0.396c-1.396-0.189-1.391-0.074-1.311-2.885
				c0.178-2.53,0.283-4.933,0.834-7.06c0.609-1.281,0.688-1.026,6.037-1.255c2.832,0.029,2.527-0.174,2.748,1.717
				c0.055,0.694,0.189,0.831-4.404,1.1C80.697,119.579,81.031,119.411,81.082,120.868z M89.021,118.286
				c-0.27-0.145,0.67-1.534,1.215-1.641c0.668,0.1,2.494,1.186,3.057,1.382c0.172,0.06,0.736,0.306,1.451,0.683
				c0.348-0.159,0.613-0.289,0.756-0.378c0.592-0.361,3.338-1.896,4.086-1.859c0.215,0.146,1.258,1.729,0.539,2.158
				c-0.91,0.592-1.934,1.339-2.613,1.61c0.811,0.439,1.457,0.791,1.609,0.869c1.145,0.567,1.379,0.818,1.254,1.977
				c-0.131,0.227-0.627,0.629-0.887,0.742c-0.602,0.265-1.109,0.622-1.75,0.903c0.498,0.232,0.998,0.476,1.473,0.72
				c2.117,1.213,2.008,0.922,1.373,2.016c-0.814,1.132-1.963,0.528-2.488,0.304c-0.266-0.129-1.934-0.79-3.436-1.611
				c-0.934,0.537-2.105,1.158-3.195,1.63c-1.473,0.672-1.719,0.729-2.232-0.002c-0.887-1.296-0.346-1.233,1.162-2.141
				c0.15-0.077,0.887-0.43,1.426-0.808c-0.652-0.342-1.4-0.616-2.189-1.116c-0.205-0.105-0.805-0.45-0.861-0.834
				c0-0.555-0.227-1.143,1.443-2.036c0.533-0.275,0.975-0.487,1.471-0.72C90.607,119.59,89.398,118.956,89.021,118.286z
				 M110.578,127.61c-1.117,0.227-7.521,0.399-7.643,0.369c-0.602-0.062-0.688,0.024-0.662-0.846
				c-0.025-1.251,0.07-1.375,2.219-1.334c2.09,0.051,3.73,0.213,3.73-1.039c0-0.948-0.244-1.142-3.65-1.019
				c-1.959,0.062-1.867,0.01-1.949-0.393c-0.242-1.196-0.523-1.894,1.182-1.985c2.379-0.215,4.35-0.023,4.479-0.598
				c0.229-1.025-0.023-1.387-1.893-1.264c-3.957,0.266-4.164,0.572-4.203-0.689c0-1.221-0.512-1.56,2.637-1.743
				c3.203-0.063,5.789-0.453,6.01,0.993c0.547,1.703,0.578,3.949,0.668,7.254C111.563,127.521,111.438,127.461,110.578,127.61z
				 M110.051,114.066c-1.086,0.568-5.172-5.019-8.025-8.654c-0.99-1.263-4.619-4.381-7.846-4.563
				c-4.848-0.273-11.533,8.319-13.207,11.266c-0.842,1.303-1.805,2.614-3.242,1.951c-1.311-0.836-1.273-0.808-0.516-2.996
				c1.381-3.261,7.393-9.856,9.971-11.703c2.74-2.554,3.412-2.891,4.285-5.935c0.436-5.551,0.279-6.863-1.334-7.146
				c-1.59-0.178-8.771-1.211-9.063,3.233c-0.246,3.773-0.23,5.437-0.246,6.962c0.012,2.25-0.176,1.892-2.408,1.9
				c-1.461,0-0.699-7.574-0.699-12.682c0.787-3.112,2.672-2.533,5.744-2.778c1.59,0.171,3.684-0.009,4.805-0.009
				c2.572,0,3.172-1.314,3.33-3.372c0.166-2.141,0.391-2.223,2.193-2.511c1.611-0.258,1.453,0.983,1.785,2.603
				c0.572,2.515-0.275,2.707,3.348,2.887c3.096,0,5.453,0.066,6.783,0.181c3.01,0.29,4.654-0.007,4.854,4.617
				c0.102,3.889,1.094,7.557-0.098,8.994c-0.502,0.606-1.883,1.328-2.879,1.148c-1.256-0.678,1.381-9.268-1.873-10.73
				c-1.932-0.867-7.318-0.876-8.885-0.138c-1.49,0.704-0.881,3.772-1.027,5.963c0,1.739-0.012,3.564,3.539,5.879
				c3.582,2.634,6.83,5.967,10.113,9.885C111.412,110.392,113.145,113.104,110.051,114.066z M112.059,65.521H96.146
				c0-2.197,1.781-3.979,3.979-3.979h9.945c1.098,0,1.988,0.891,1.988,1.989V65.521z M127.244,134.359
				c-0.633,0.617-2.91,0.918-3.396,1.638c-0.486,0.721-0.328,5.979,0.012,6.338c0.396,0.456,1.479,0.158,3.102,0.007
				c1.227-0.024,1.658,3.799,0.717,3.913c-0.965,0.182-4.459,0.556-6.307,0.749c-1.98,0.241-3.111,0.387-5.002,0.375
				c-1.764-0.016-1.738-0.939-1.91-2.271c-0.004-1.514-0.168-2.046,1.283-1.861c1.422,0.051,2.391,0.231,3.654-0.863
				c0.936-0.759,0.391-2.741,0.523-4.227c-0.049-1.337,0.318-2.554-1.574-2.073c-2.664,0.622-2.813,1.046-2.803-3.48
				c0.006-1.615-0.031-3.155,0.066-4.235c0.154-2.175-0.328-3.284,2.418-3.85c1.178-0.255,0.543,3.329,0.531,4.999
				c-0.012,1.596-0.215,3.283,0.678,3.283c2.248,0.158,0.947-4.886,1.107-9.123c0.092-2.813-0.496-4.087,1.723-4.496
				c1.963-0.279,1.508,0.45,1.6,2.771c0.029,2.207-0.098,9.818,0.848,9.748c1.877-0.139,1.525-6.571,1.4-7.697
				c-0.047-1.729-0.35-2.475,1.404-2.621c1.354-0.059,1.385-0.164,1.648,1.376c0.252,1.613,0.293,3.129,0.295,4.345
				c-0.127,1.576-0.201,2.398-0.516,4.083C128.492,133.051,127.875,133.741,127.244,134.359z M135.506,151.82
				c-0.967,0.227-1.355,0.22-2.621,0.003c-0.875-0.15-1.313-1.169-2.051-3.464c-0.35-1.247-0.668-2.462-1.26-5.395
				c-0.348-3.285-0.76-5.938-0.086-7.634c0.326-1.225,1.047-3.006,1.766-4.416c0.578-1.387,1.104-2.396,1.75-4.848
				c0.426-2.354,0.418-2.575-0.01-4.59c-0.133-0.803-0.695-1.838-1.098-2.926c-0.652-1.424-1.061-2.127,0.57-2.327
				c2.365-0.175,2.188,0.085,3.26,1.663c1.125,2.59,1.135,3.574,1.189,4.411c0.246,1.955,0.156,4.172-1.707,8.286
				c-1.797,3.552-2.529,5.009-2.283,8.395c0.275,3.768,1.117,7.815,1.625,9.218C134.938,149.265,136.264,151.643,135.506,151.82z
				 M141.275,146.588c0.713,2.511,2.35,4.696,1.287,4.972c-0.84,0.197-2.33,0.097-2.816-0.434c-1.016-1.107-1.93-3.135-2.564-6.415
				c-0.471-3.506-0.799-5.705-0.443-8.908c1.096-4.764,3.508-6.243,3.898-10.213c0.234-2.553-0.047-3.325-0.43-4.427
				c-0.656-1.902-2.891-4.823-0.305-4.823c1.59,0,1.619,0.215,2.25,0.701c1.002,0.774,2.119,4.182,2.295,6.148
				c0.246,2.924-1.105,5.854-2.096,8.4c-1.119,2.875-2.246,4.493-2.236,7.306C140.277,140.853,140.473,143.38,141.275,146.588z
				 M150.453,128.634c-1.303,4.856-2.428,4.291-3.354,9.665c0.006,2.056,1.086,6.573,1.543,8.23
				c0.305,1.573,1.822,4.672,1.063,4.903c-0.764,0.234-2.467-0.167-3.059-0.624c-0.885-0.681-1.607-3.831-1.982-4.922
				c-0.707-3.078-1.887-8.434,0.35-12.769c0.641-1.389,1.682-3.223,2.293-6.739c0.025-4.774-0.258-5.347-0.953-7.558
				c-0.518-1.307-1.223-2.311-0.031-2.372c3.543,0,3.094,1.062,4.109,3.434C151.059,122.676,151.135,123.776,150.453,128.634z
				 M149.586,112.285c-1.939,0.687-1.766-0.26-1.848-2.98c-0.076-1.777,0.156-7.332-2.277-8.134
				c-2.076-0.997-4.029-1.064-4.475-0.408c-0.332,0.493-0.195,10.268-0.195,10.268c0.041,2.307-0.98,1.943-2.016,1.791
				c-1.959-0.514-1.742-1.646-1.711-3.474c0.031-1.826,0.037-8.413-0.289-8.766c-0.293-0.316-4.047-0.536-4.668,3.399
				c-0.598,3.734-1.014,6.232-1.148,7.026c-0.086,0.487-0.184,1.117-0.549,1.234c-0.701,0.227-2.082,0.537-2.338,0.158
				c-0.398-1.414-0.025-3.51,0.209-5.867c0.436-2.467,1.029-4.274,1.773-6.441c0.271-1.425,4.119-2.389,6.301-3.315
				c1.289-0.346,0.922-2.345,0.504-2.4c-0.678-0.165-3.236,0.207-4.824,0.377c-1.131-0.012-2.129,0.877-2.992-1.06
				c-0.436-0.976-0.625-1.812,2.033-1.952l3.451-0.283c0,0,2.465-0.077,2.623-0.49c0.01-0.642,0.129-1.834,0.713-2.802
				c0.182-0.301,1.193-0.164,1.807-0.11c1.311,0.378,0.811,0.436,1.047,2.069c0.076,0.745-0.191,0.945,4.139,0.841
				c3.049-0.099,5.297-0.454,5.195,0.777c0.031,0.598,0.041,1.847-0.264,2.162c-0.441,0.457-1.303,0.259-2.738,0.34
				c-2.131,0.018-5.594,0.132-6.102,0.197c-0.32,0.155-0.283,0.784-0.135,1.432c0.197,0.462-0.117,0.548,1.895,1.006
				c6.672,1.952,6.596,1.549,7.646,5.875c0.631,3.648,0.551,5.667,0.59,6.781C150.898,110.781,151.395,111.646,149.586,112.285z"/>
		</g>
		<g>
			<path fill="#940040" d="M145.607,85.27l1.611-0.092c0.844-0.194,0.746-1.432,0.264-3.242c-0.529-1.082-2.049-1.011-3.52-0.979
				c-0.59,0.033-1.023,0.127-0.832,1.05C143.723,85.591,143.879,85.037,145.607,85.27z"/>
		</g>
		<g>
			<path fill="#940040" d="M131.59,85.488l1.162-0.089c2.346-0.163,2.211-1.435,2.492-3.398c0.139-0.784-1.178-0.607-2.459-0.374
				c-1.217,0.235-1.254,0.18-1.488,1.076C131.074,83.552,130.752,85.24,131.59,85.488z"/>
		</g>
	</g>
</g>
<g>
</g>
<g>
</g>
<g>
</g>
<g>
</g>
<g>
</g>
</svg>
